<svg id="LineForLineFilled" xmlns="http://www.w3.org/2000/svg" viewBox="0 0 512 512" height="225" width="400"><defs><style>.cls-1{fill:none;stroke:#4e5b5c;stroke-linecap:round;stroke-miterlimit:10;stroke-width:22.677px;}.cls-2{fill:#ee7d49;}</style></defs><path class="cls-1" d="M61.755,196.08v-112.197c0-2.788,2.26-5.048,5.048-5.048h112.197" /><path class="cls-1" d="M450.245,196.08v-112.197c0-2.788-2.26-5.048-5.048-5.048h-112.197" /><path class="cls-1" d="M61.755,315.92v112.197c0,2.788,2.26,5.048,5.048,5.048h112.197" /><path class="cls-1" d="M450.245,315.92v112.197c0,2.788-2.26,5.048-5.048,5.048h-112.197" /><path class="cls-2" d="M363.662,150.739c-2.257-1.131-4.915-1.131-7.172,0h0l-208.148,104.074c-3.954,1.979-5.555,6.788-3.576,10.742,1.126,2.251,3.246,3.841,5.721,4.293l82.611,15.027,15.027,82.611c.615,3.386,3.326,6.001,6.733,6.493.377.054.757.081,1.137.08,3.034.001,5.809-1.713,7.165-4.427l104.075-208.148c1.98-3.953.381-8.763-3.572-10.743Z" /></svg>